# xmcd
# 
# Track frame offsets:
#     150
#     101747
#     182160
#     273550
# 
# Disc length: 4796
# 
# Revision: 0
# Processed by: cddbd v1.5.2PL0 Copyright (c) Steve Scherf et al.
# Submitted via: fre:ac v1.0.17
# 
DISCID=3512ba04
DTITLE=Stuart McLean - Vinyl Cafe
DYEAR=2011
DGENRE=Comedy
TTITLE0=The Waterslide
TTITLE1=Tree Planting
TTITLE2=Sam The Athlete
TTITLE3=Dream Bunnies
EXTD=
EXTT0=
EXTT1=
EXTT2=
EXTT3=
PLAYORDER=
